# xmcd
# Track frame offsets:
# 150
# 11908
# 28684
# 41059
# 58927
# 71366
# 85182
# 97868
# 111735
# 124697
#
# Disc length: 1844 seconds
# Revision: 0
# Processed by: cddbd v1.4PL0 Copyright (c) Steve Scherf et al.
# Submitted via: VisiTrax 2.9.3.171 - For more info visit www.synapsa.com
#
DISCID=8707320a
DTITLE=Bill Chrastil - Bill Chrastil
DYEAR=1900
DGENRE=
TTITLE0=Worlds Biggest Fool
TTITLE1=Lady Turn The Lights Out
TTITLE2=If You Feel I Don't Love You, Feel Again
TTITLE3=It Is Me
TTITLE4=Why Are You Still Here
TTITLE5=I Surrender
TTITLE6=Come With Me Tonight
TTITLE7=Little Betty Rocker
TTITLE8=Easy On The Eye's (Hard On The Heart)
TTITLE9=You've Never Been This Far Before
EXTD=
EXTT0=
EXTT1=
EXTT2=
EXTT3=
EXTT4=
EXTT5=
EXTT6=
EXTT7=
EXTT8=
EXTT9=
PLAYORDER=
